<svg xmlns="http://www.w3.org/2000/svg" version="1.1" xmlns:xlink="http://www.w3.org/1999/xlink" xmlns:svgjs="http://svgjs.dev/svgjs" width="2000" height="1247" viewBox="0 0 2000 1247"><g transform="matrix(1,0,0,1,-1.2121212121212466,0.504858299595071)"><svg viewBox="0 0 396 247" data-background-color="#97978d" preserveAspectRatio="xMidYMid meet" height="1247" width="2000" xmlns="http://www.w3.org/2000/svg" xmlns:xlink="http://www.w3.org/1999/xlink"><g id="tight-bounds" transform="matrix(1,0,0,1,0.2400000000000091,-0.09999999999999432)"><svg viewBox="0 0 395.52 247.2" height="247.2" width="395.52"><g><svg></svg></g><g><svg viewBox="0 0 395.52 247.2" height="247.2" width="395.52"><mask id="3b825971-93c2-44fb-9090-3cde23d85fd4"><rect width="395.52" height="247.2" fill="white"></rect><g transform="matrix(1,0,0,1,0,89.62568888873513)" id="clone"><svg viewBox="0 0 395.52 67.94862222252974" height="67.94862222252974" width="395.52"><g><svg viewBox="0 0 395.52 67.94862222252974" height="67.94862222252974" width="395.52"><g><svg viewBox="0 0 395.52 31.79708697788698" height="31.79708697788698" width="395.52"><g id="SvgjsG1215"><svg viewBox="0 0 395.52 31.79708697788698" height="31.79708697788698" width="395.52" id="SvgjsSvg1214"><g><svg viewBox="0 0 395.52 31.79708697788698" height="31.79708697788698" width="395.52"><g transform="matrix(1,0,0,1,0,0)"><svg width="395.52" viewBox="-2 -38.45 509.71 41.900000000000006" height="31.79708697788698" data-palette-color="#ffffff"><path d="M21.7-34.95L31.45-35Q31.45-34.95 31.5-34.25L31.5-34.25 28.65-34 17.95-11.8 17.95-0.95 21.6-0.75Q21.6-0.7 21.55 0L21.55 0 11.55 0.05Q11.55-0.4 11.6-0.65L11.6-0.65 14.2-1Q14.7-1.05 14.8-1.65L14.8-1.65 14.8-11.8 3.55-33.75Q3.35-33.9 3.15-34L3.15-34 1.05-34.2Q1-34.5 1-34.95L1-34.95 11.1-35Q11.1-34.95 11.15-34.25L11.15-34.25 7.05-33.9 17.4-12.65 26.75-33.15Q26.75-33.75 26.3-33.8L26.3-33.8 21.75-34.2Q21.7-34.5 21.7-34.95L21.7-34.95ZM31.25-17.4L31.25-17.4Q31.25-25.65 35.47-30.55 39.7-35.45 46-35.45L46-35.45Q60.75-35.45 60.75-17.4L60.75-17.4Q60.75-9.1 56.55-4.33 52.35 0.45 46 0.45L46 0.45Q31.25 0.45 31.25-17.4ZM34.65-17.5L34.65-17.5Q34.65-0.55 46-0.55L46-0.55Q50.9-0.55 54.12-5.05 57.35-9.55 57.35-17.5L57.35-17.5Q57.35-34.45 46-34.45L46-34.45Q41.15-34.45 37.9-29.9 34.65-25.35 34.65-17.5ZM64.34-34.95L74.34-35Q74.34-34.95 74.4-34.25L74.4-34.25 71-33.95 71-15.05Q71-6.35 74.05-3.5L74.05-3.5Q75.5-2.1 77-1.58 78.5-1.05 80.52-1.05 82.55-1.05 84.2-1.6 85.84-2.15 87.4-3.6L87.4-3.6Q90.7-6.6 90.7-15.05L90.7-15.05 90.7-33.15Q90.59-33.8 90.09-33.85L90.09-33.85 86.5-34.2Q86.45-34.5 86.45-34.95L86.45-34.95 95.95-35Q95.95-34.95 96-34.25L96-34.25 91.84-33.8 91.84-15Q91.84 0.2 80.5 0.2L80.5 0.2Q77.75 0.2 75.67-0.38 73.59-0.95 71.65-2.5L71.65-2.5Q67.59-5.65 67.59-15L67.59-15 67.59-33.3Q67.4-33.9 67-33.95L67-33.95 64.4-34.2Q64.34-34.5 64.34-34.95L64.34-34.95ZM101.24-33.95L98.59-34.25 98.64-35 110.79-35Q115.94-35 118.74-32.75 121.54-30.5 121.54-26.05L121.54-26.05Q121.54-23.15 119.32-20 117.09-16.85 115.14-15.95L115.14-15.95 124.39-0.9 126.84-0.75Q126.84-0.7 126.79 0L126.79 0 121.34 0.05 111.84-15.35 105.19-15.35 105.19-0.95 108.69-0.75Q108.69-0.7 108.64 0L108.64 0 98.59 0.05 98.64-0.65 101.24-1Q101.59-1.05 101.79-1.45L101.79-1.45 101.79-33.45Q101.64-33.9 101.24-33.95L101.24-33.95ZM110.54-34.25L110.54-34.25 105.19-34.25 105.19-16.1 113.74-16.1Q116.34-19.05 117.24-21.33 118.14-23.6 118.14-25.75L118.14-25.75Q118.14-29.95 116.19-32.1 114.24-34.25 110.54-34.25ZM147.74-33.95L145.09-34.25 145.14-35 157.34-35Q164.09-35 168.16-31.08 172.24-27.15 172.24-18.3L172.24-18.3Q172.24-9.55 169.39-5.2L169.39-5.2Q166.89-1.4 161.59-0.4L161.59-0.4Q159.24 0 156.09 0L156.09 0 155.14 0 145.09 0.05 145.14-0.65 147.74-1Q148.24-1.05 148.34-1.65L148.34-1.65 148.34-33.25Q148.24-33.9 147.74-33.95L147.74-33.95ZM157.09-34.25L157.09-34.25 151.74-34.25 151.74-0.75 155.84-0.75Q158.24-0.75 159.91-1.03 161.59-1.3 163.41-2.33 165.24-3.35 166.29-5.15L166.29-5.15Q168.84-9.4 168.84-18.05L168.84-18.05Q168.84-27.05 165.29-30.8L165.29-30.8Q162.04-34.25 157.09-34.25ZM178.24-33.95L175.59-34.25 175.64-35 187.79-35Q192.94-35 195.74-32.75 198.54-30.5 198.54-26.05L198.54-26.05Q198.54-23.15 196.31-20 194.09-16.85 192.14-15.95L192.14-15.95 201.39-0.9 203.84-0.75Q203.84-0.7 203.79 0L203.79 0 198.34 0.05 188.84-15.35 182.19-15.35 182.19-0.95 185.69-0.75Q185.69-0.7 185.64 0L185.64 0 175.59 0.05 175.64-0.65 178.24-1Q178.59-1.05 178.79-1.45L178.79-1.45 178.79-33.45Q178.64-33.9 178.24-33.95L178.24-33.95ZM187.54-34.25L187.54-34.25 182.19-34.25 182.19-16.1 190.74-16.1Q193.34-19.05 194.24-21.33 195.14-23.6 195.14-25.75L195.14-25.75Q195.14-29.95 193.19-32.1 191.24-34.25 187.54-34.25ZM209.28-33.95L206.63-34.25 206.68-35 228.08-35 228.03-34.85 228.68-27.8 227.68-27.4 226.88-34 213.28-34 213.28-17.85 225.23-17.85Q225.48-17.8 225.68-17.98 225.88-18.15 225.88-18.45L225.88-18.45 226.08-21.9 226.88-22 226.88-13.45Q226.83-13.45 226.13-13.4L226.13-13.4 225.93-16.85 213.28-16.85 213.28-1 228.23-1 229.18-9 230.13-8.75 229.38 0 216.68 0 206.63 0.05 206.68-0.65 209.28-1Q209.78-1.05 209.88-1.65L209.88-1.65 209.88-33.3Q209.78-33.9 209.28-33.95L209.28-33.95ZM241.68 0L231.63 0.05 231.68-0.65 234.28-1Q234.63-1.05 234.88-1.65L234.88-1.65 245.68-35 248.98-35 260.48-0.95 263.93-0.75Q263.93-0.7 263.88 0L263.88 0 253.88 0.05Q253.88-0.4 253.93-0.65L253.93-0.65 256.53-1Q256.93-1.05 256.93-1.6L256.93-1.6 254.18-9.75 238.58-9.75 235.93-1.05 241.73-0.75Q241.73-0.7 241.68 0L241.68 0ZM253.83-10.75L246.03-34.05 238.88-10.75 253.83-10.75ZM267.93-33.95L265.28-34.25 265.33-35 271.93-35 283.88-9.65 295.63-35 302.23-35Q302.23-34.9 302.28-34.65 302.33-34.4 302.28-34.25L302.28-34.25 299.63-33.95Q299.13-33.9 299.03-33.3L299.03-33.3 299.03-0.95 302.73-0.75Q302.73-0.7 302.68 0L302.68 0 292.63 0.05 292.68-0.65 295.28-1Q295.78-1.05 295.88-1.6L295.88-1.6 295.88-33.2 284.48-8.55 283.48-6.55 282.33-6.55 269.68-33.25 269.68-1.05 275.38-0.75Q275.38-0.7 275.33 0L275.33 0 265.28 0.05 265.33-0.65 267.93-1Q268.43-1.05 268.53-1.65L268.53-1.65 268.53-33.3Q268.43-33.9 267.93-33.95L267.93-33.95ZM330.22 0L320.17 0.05 320.22-0.65 322.82-1Q323.17-1.05 323.42-1.65L323.42-1.65 334.22-35 337.52-35 349.02-0.95 352.47-0.75Q352.47-0.7 352.42 0L352.42 0 342.42 0.05Q342.42-0.4 342.47-0.65L342.47-0.65 345.07-1Q345.47-1.05 345.47-1.6L345.47-1.6 342.72-9.75 327.12-9.75 324.47-1.05 330.27-0.75Q330.27-0.7 330.22 0L330.22 0ZM342.37-10.75L334.57-34.05 327.42-10.75 342.37-10.75ZM356.82-33.95L354.17-34.25 354.22-35 361.07-35 380.52-1.4 380.27-33.25Q380.07-33.75 379.72-33.8L379.72-33.8 375.12-34.2Q375.07-34.5 375.07-34.95L375.07-34.95 384.57-35Q384.57-34.95 384.62-34.25L384.62-34.25 381.42-33.9 381.42 0 377.77 0 358.32-33.6 358.57-1.05 364.27-0.75Q364.27-0.7 364.22 0L364.22 0 354.17 0.05 354.22-0.65 356.82-1Q357.32-1.05 357.42-1.65L357.42-1.65 357.42-33.3Q357.32-33.9 356.82-33.95L356.82-33.95ZM396.67 0L386.62 0.05 386.67-0.65 389.27-1Q389.62-1.05 389.87-1.65L389.87-1.65 400.67-35 403.97-35 415.47-0.95 418.92-0.75Q418.92-0.7 418.87 0L418.87 0 408.87 0.05Q408.87-0.4 408.92-0.65L408.92-0.65 411.52-1Q411.92-1.05 411.92-1.6L411.92-1.6 409.17-9.75 393.57-9.75 390.92-1.05 396.72-0.75Q396.72-0.7 396.67 0L396.67 0ZM408.82-10.75L401.02-34.05 393.87-10.75 408.82-10.75ZM420.87-34.95L430.92-35Q430.92-34.95 430.97-34.25L430.97-34.25 427.51-33.95 427.51-1 441.31-1 442.31-9 443.26-8.75 442.51 0 430.92 0 420.87 0.05 420.92-0.65 423.51-1Q424.01-1.05 424.12-1.65L424.12-1.65 424.12-33.3Q424.01-33.9 423.51-33.95L423.51-33.95 420.92-34.2 420.87-34.95ZM444.76-17.4L444.76-17.4Q444.76-25.65 448.99-30.55 453.21-35.45 459.51-35.45L459.51-35.45Q474.26-35.45 474.26-17.4L474.26-17.4Q474.26-9.1 470.06-4.33 465.86 0.45 459.51 0.45L459.51 0.45Q444.76 0.45 444.76-17.4ZM448.16-17.5L448.16-17.5Q448.16-0.55 459.51-0.55L459.51-0.55Q464.41-0.55 467.64-5.05 470.86-9.55 470.86-17.5L470.86-17.5Q470.86-34.45 459.51-34.45L459.51-34.45Q454.66-34.45 451.41-29.9 448.16-25.35 448.16-17.5ZM495.66-14.4L504.66-14.45Q504.66-14.4 504.71-13.7L504.71-13.7 502.71-13.45 502.71-1.05Q501.86-0.75 498.19-0.28 494.51 0.2 492.21 0.2 489.91 0.2 488.21-0.13 486.51-0.45 484.61-1.5 482.71-2.55 481.39-4.28 480.06-6 479.16-9 478.26-12 478.26-16L478.26-16Q478.26-24.85 482.31-29.8L482.31-29.8Q486.56-35 493.91-35L493.91-35Q496.16-35 498.79-34.58 501.41-34.15 502.51-33.75L502.51-33.75 503.11-26.55 502.16-26.2 501.51-31.55Q497.46-34.3 493.91-34.3L493.91-34.3Q488.26-34.3 484.96-29.6 481.66-24.9 481.66-16L481.66-16Q481.66-5.2 486.61-2.05L486.61-2.05Q488.11-1.1 489.39-0.83 490.66-0.55 492.96-0.55 495.26-0.55 499.71-1.2L499.71-1.2 499.91-12.7Q499.91-13.3 499.31-13.4L499.31-13.4 495.71-13.65Q495.66-13.95 495.66-14.4L495.66-14.4Z" opacity="1" transform="matrix(1,0,0,1,0,0)" fill="black" class="wordmark-text-0" id="SvgjsPath1213" stroke-width="5" stroke="black" stroke-linejoin="round"></path></svg></g></svg></g></svg></g></svg></g><g transform="matrix(1,0,0,1,181.70762511011583,35.86981305401868)"><svg viewBox="0 0 32.104749779768305 32.078809168511064" height="32.078809168511064" width="32.104749779768305"><g><svg xmlns="http://www.w3.org/2000/svg" xmlns:xlink="http://www.w3.org/1999/xlink" version="1.1" viewBox="0.960000000000008 1 94.07601334093707 94" x="0" y="0" height="32.078809168511064" width="32.104749779768305" class="icon-icon-0" data-fill-palette-color="accent" id="SvgjsSvg1212"><path d="M93.04 75c-0.028-0.004-0.052-0.004-0.08 0h-90c-1.104 0-2-0.896-2-2v-46c0-14.336 11.888-26 26.5-26 14.876 0 24.008 13.38 26.468 26.636 2.1 11.368 10.268 14.372 18.916 17.556 10.264 3.776 21.884 8.052 22.108 27.244 0.056 0.184 0.084 0.376 0.084 0.576 0.004 1.092-0.892 1.988-1.996 1.988zM4.96 71h85.956c-0.7-15.152-9.416-18.364-19.448-22.056-8.884-3.268-18.956-6.976-21.476-20.584-2.156-11.628-9.956-23.364-22.532-23.364-12.196 0-22.5 10.076-22.5 22v44.004z" fill="black" stroke-width="5" stroke="black" stroke-linejoin="round"></path><path d="M86.96 95h-80c-1.104 0-2-0.896-2-2v-20c0-1.104 0.896-2 2-2h80c1.1 0 2 0.896 2 2v20c0 1.104-0.896 2-2 2zM8.96 91h76v-16h-76v16z" fill="black" stroke-width="5" stroke="black" stroke-linejoin="round"></path><path d="M22.96 85c-1.104 0-2-0.896-2-2v-8c0-1.104 0.896-2 2-2 1.1 0 2 0.896 2 2v8c0 1.104-0.896 2-2 2z" fill="black" stroke-width="5" stroke="black" stroke-linejoin="round"></path><path d="M34.96 85c-1.104 0-2-0.896-2-2v-8c0-1.104 0.896-2 2-2 1.1 0 2 0.896 2 2v8c0 1.104-0.896 2-2 2z" fill="black" stroke-width="5" stroke="black" stroke-linejoin="round"></path><path d="M46.96 85c-1.104 0-2-0.896-2-2v-8c0-1.104 0.896-2 2-2 1.1 0 2 0.896 2 2v8c0 1.104-0.896 2-2 2z" fill="black" stroke-width="5" stroke="black" stroke-linejoin="round"></path><path d="M58.96 85c-1.104 0-2-0.896-2-2v-8c0-1.104 0.896-2 2-2 1.1 0 2 0.896 2 2v8c0 1.104-0.896 2-2 2z" fill="black" stroke-width="5" stroke="black" stroke-linejoin="round"></path><path d="M70.96 85c-1.104 0-2-0.896-2-2v-8c0-1.104 0.896-2 2-2 1.1 0 2 0.896 2 2v8c0 1.104-0.896 2-2 2z" fill="black" stroke-width="5" stroke="black" stroke-linejoin="round"></path></svg></g></svg></g><g></g></svg></g></svg></g></mask><g mask="url(#3b825971-93c2-44fb-9090-3cde23d85fd4)"><g><path transform="translate(-3.21102,197.18761) scale(4.21102,4.21102)" d="M21.7-34.95l9.75-0.05c0 0.033 0.017 0.283 0.05 0.75v0l-2.85 0.25-10.7 22.2v10.85l3.65 0.2c0 0.033-0.017 0.283-0.05 0.75v0l-10 0.05c0-0.3 0.017-0.533 0.05-0.7v0l2.6-0.35c0.333-0.033 0.533-0.25 0.6-0.65v0-10.15l-11.25-21.95c-0.133-0.1-0.267-0.183-0.4-0.25v0l-2.1-0.2c-0.033-0.2-0.05-0.45-0.05-0.75v0l10.1-0.05c0 0.033 0.017 0.283 0.05 0.75v0l-4.1 0.35 10.35 21.25 9.35-20.5c0-0.4-0.15-0.617-0.45-0.65v0l-4.55-0.4c-0.033-0.2-0.05-0.45-0.05-0.75zM37.2-33.95l-2.65-0.3 0.05-0.75h12.2c4.5 0 8.11 1.307 10.83 3.92 2.713 2.62 4.07 6.88 4.07 12.78v0c0 5.833-0.95 10.2-2.85 13.1v0c-1.667 2.533-4.267 4.133-7.8 4.8v0c-1.567 0.267-3.4 0.4-5.5 0.4v0h-0.95l-10.05 0.05 0.05-0.7 2.6-0.35c0.333-0.033 0.533-0.25 0.6-0.65v0-31.6c-0.067-0.433-0.267-0.667-0.6-0.7zM46.55-34.25v0h-5.35v33.5h4.1c1.6 0 2.96-0.093 4.08-0.28 1.113-0.18 2.28-0.613 3.5-1.3 1.213-0.68 2.17-1.62 2.87-2.82v0c1.7-2.833 2.55-7.133 2.55-12.9v0c0-6-1.183-10.25-3.55-12.75v0c-2.167-2.3-4.9-3.45-8.2-3.45zM72.2 0l-10.05 0.05 0.05-0.7 2.6-0.35c0.233-0.033 0.433-0.25 0.6-0.65v0l10.8-33.35h3.3l11.5 34.05 3.45 0.2c0 0.033-0.017 0.283-0.05 0.75v0l-10 0.05c0-0.3 0.017-0.533 0.05-0.7v0l2.6-0.35c0.267-0.033 0.4-0.233 0.4-0.6v0l-2.75-8.15h-15.6l-2.65 8.7 5.8 0.3c0 0.033-0.017 0.283-0.05 0.75zM84.35-10.75l-7.8-23.3-7.15 23.3z" fill="#ffffff" fill-rule="nonzero" stroke="none" stroke-width="1" stroke-linecap="butt" stroke-linejoin="miter" stroke-miterlimit="10" stroke-dasharray="" stroke-dashoffset="0" font-family="none" font-weight="none" font-size="none" text-anchor="none" style="mix-blend-mode: normal" data-fill-palette-color="tertiary"></path></g></g><g transform="matrix(1,0,0,1,0,89.62568888873513)"><svg viewBox="0 0 395.52 67.94862222252974" height="67.94862222252974" width="395.52"><g><svg viewBox="0 0 395.52 67.94862222252974" height="67.94862222252974" width="395.52"><g><svg viewBox="0 0 395.52 31.79708697788698" height="31.79708697788698" width="395.52"><g id="textblocktransform"><svg viewBox="0 0 395.52 31.79708697788698" height="31.79708697788698" width="395.52" id="textblock"><g><svg viewBox="0 0 395.52 31.79708697788698" height="31.79708697788698" width="395.52"><g transform="matrix(1,0,0,1,0,0)"><svg width="395.52" viewBox="-2 -38.45 509.71 41.900000000000006" height="31.79708697788698" data-palette-color="#ffffff"><path d="M21.7-34.95L31.45-35Q31.45-34.95 31.5-34.25L31.5-34.25 28.65-34 17.95-11.8 17.95-0.95 21.6-0.75Q21.6-0.7 21.55 0L21.55 0 11.55 0.05Q11.55-0.4 11.6-0.65L11.6-0.65 14.2-1Q14.7-1.05 14.8-1.65L14.8-1.65 14.8-11.8 3.55-33.75Q3.35-33.9 3.15-34L3.15-34 1.05-34.2Q1-34.5 1-34.95L1-34.95 11.1-35Q11.1-34.95 11.15-34.25L11.15-34.25 7.05-33.9 17.4-12.65 26.75-33.15Q26.75-33.75 26.3-33.8L26.3-33.8 21.75-34.2Q21.7-34.5 21.7-34.95L21.7-34.95ZM31.25-17.4L31.25-17.4Q31.25-25.65 35.47-30.55 39.7-35.45 46-35.45L46-35.45Q60.75-35.45 60.75-17.4L60.75-17.4Q60.75-9.1 56.55-4.33 52.35 0.45 46 0.45L46 0.45Q31.25 0.45 31.25-17.4ZM34.65-17.5L34.65-17.5Q34.65-0.55 46-0.55L46-0.55Q50.9-0.55 54.12-5.05 57.35-9.55 57.35-17.5L57.35-17.5Q57.35-34.45 46-34.45L46-34.45Q41.15-34.45 37.9-29.9 34.65-25.35 34.65-17.5ZM64.34-34.95L74.34-35Q74.34-34.95 74.4-34.25L74.4-34.25 71-33.95 71-15.05Q71-6.35 74.05-3.5L74.05-3.5Q75.5-2.1 77-1.58 78.5-1.05 80.52-1.05 82.55-1.05 84.2-1.6 85.84-2.15 87.4-3.6L87.4-3.6Q90.7-6.6 90.7-15.05L90.7-15.05 90.7-33.15Q90.59-33.8 90.09-33.85L90.09-33.85 86.5-34.2Q86.45-34.5 86.45-34.95L86.45-34.95 95.95-35Q95.95-34.95 96-34.25L96-34.25 91.84-33.8 91.84-15Q91.84 0.2 80.5 0.2L80.5 0.2Q77.75 0.2 75.67-0.38 73.59-0.95 71.65-2.5L71.65-2.5Q67.59-5.65 67.59-15L67.59-15 67.59-33.3Q67.4-33.9 67-33.95L67-33.95 64.4-34.2Q64.34-34.5 64.34-34.95L64.34-34.95ZM101.24-33.95L98.59-34.25 98.64-35 110.79-35Q115.94-35 118.74-32.75 121.54-30.5 121.54-26.05L121.54-26.05Q121.54-23.15 119.32-20 117.09-16.85 115.14-15.95L115.14-15.95 124.39-0.9 126.84-0.75Q126.84-0.7 126.79 0L126.79 0 121.34 0.05 111.84-15.35 105.19-15.35 105.19-0.95 108.69-0.75Q108.69-0.7 108.64 0L108.64 0 98.59 0.05 98.64-0.65 101.24-1Q101.59-1.05 101.79-1.45L101.79-1.45 101.79-33.45Q101.64-33.9 101.24-33.95L101.24-33.95ZM110.54-34.25L110.54-34.25 105.19-34.25 105.19-16.1 113.74-16.1Q116.34-19.05 117.24-21.33 118.14-23.6 118.14-25.75L118.14-25.75Q118.14-29.95 116.19-32.1 114.24-34.25 110.54-34.25ZM147.74-33.95L145.09-34.25 145.14-35 157.34-35Q164.09-35 168.16-31.08 172.24-27.15 172.24-18.3L172.24-18.3Q172.24-9.55 169.39-5.2L169.39-5.2Q166.89-1.4 161.59-0.4L161.59-0.4Q159.24 0 156.09 0L156.09 0 155.14 0 145.09 0.05 145.14-0.65 147.74-1Q148.24-1.05 148.34-1.65L148.34-1.65 148.34-33.25Q148.24-33.9 147.74-33.95L147.74-33.95ZM157.09-34.25L157.09-34.25 151.74-34.25 151.74-0.75 155.84-0.75Q158.24-0.75 159.91-1.03 161.59-1.3 163.41-2.33 165.24-3.35 166.29-5.15L166.29-5.15Q168.84-9.4 168.84-18.05L168.84-18.05Q168.84-27.05 165.29-30.8L165.29-30.8Q162.04-34.25 157.09-34.25ZM178.24-33.95L175.59-34.25 175.64-35 187.79-35Q192.94-35 195.74-32.75 198.54-30.5 198.54-26.05L198.54-26.05Q198.54-23.15 196.31-20 194.09-16.85 192.14-15.95L192.14-15.95 201.39-0.9 203.84-0.75Q203.84-0.7 203.79 0L203.79 0 198.34 0.05 188.84-15.35 182.19-15.35 182.19-0.95 185.69-0.75Q185.69-0.7 185.64 0L185.64 0 175.59 0.05 175.64-0.65 178.24-1Q178.59-1.05 178.79-1.45L178.79-1.45 178.79-33.45Q178.64-33.9 178.24-33.95L178.24-33.95ZM187.54-34.25L187.54-34.25 182.19-34.25 182.19-16.1 190.74-16.1Q193.34-19.05 194.24-21.33 195.14-23.6 195.14-25.75L195.14-25.75Q195.14-29.95 193.19-32.1 191.24-34.25 187.54-34.25ZM209.28-33.95L206.63-34.25 206.68-35 228.08-35 228.03-34.85 228.68-27.8 227.68-27.4 226.88-34 213.28-34 213.28-17.85 225.23-17.85Q225.48-17.8 225.68-17.98 225.88-18.15 225.88-18.45L225.88-18.45 226.08-21.9 226.88-22 226.88-13.45Q226.83-13.45 226.13-13.4L226.13-13.4 225.93-16.85 213.28-16.85 213.28-1 228.23-1 229.18-9 230.13-8.75 229.38 0 216.68 0 206.63 0.05 206.68-0.65 209.28-1Q209.78-1.05 209.88-1.65L209.88-1.65 209.88-33.3Q209.78-33.9 209.28-33.95L209.28-33.95ZM241.68 0L231.63 0.05 231.68-0.65 234.28-1Q234.63-1.05 234.88-1.65L234.88-1.65 245.68-35 248.98-35 260.48-0.95 263.93-0.75Q263.93-0.7 263.88 0L263.88 0 253.88 0.05Q253.88-0.4 253.93-0.65L253.93-0.65 256.53-1Q256.93-1.05 256.93-1.6L256.93-1.6 254.18-9.75 238.58-9.75 235.93-1.05 241.73-0.75Q241.73-0.7 241.68 0L241.68 0ZM253.83-10.75L246.03-34.05 238.88-10.75 253.83-10.75ZM267.93-33.95L265.28-34.25 265.33-35 271.93-35 283.88-9.65 295.63-35 302.23-35Q302.23-34.9 302.28-34.65 302.33-34.4 302.28-34.25L302.28-34.25 299.63-33.95Q299.13-33.9 299.03-33.3L299.03-33.3 299.03-0.95 302.73-0.75Q302.73-0.7 302.68 0L302.68 0 292.63 0.05 292.68-0.65 295.28-1Q295.78-1.05 295.88-1.6L295.88-1.6 295.88-33.2 284.48-8.55 283.48-6.55 282.33-6.55 269.68-33.25 269.68-1.05 275.38-0.75Q275.38-0.7 275.33 0L275.33 0 265.28 0.05 265.33-0.65 267.93-1Q268.43-1.05 268.53-1.65L268.53-1.65 268.53-33.3Q268.43-33.9 267.93-33.95L267.93-33.95ZM330.22 0L320.17 0.05 320.22-0.65 322.82-1Q323.17-1.05 323.42-1.65L323.42-1.65 334.22-35 337.52-35 349.02-0.95 352.47-0.75Q352.47-0.7 352.42 0L352.42 0 342.42 0.05Q342.42-0.4 342.47-0.65L342.47-0.65 345.07-1Q345.47-1.05 345.47-1.6L345.47-1.6 342.72-9.75 327.12-9.75 324.47-1.05 330.27-0.75Q330.27-0.7 330.22 0L330.22 0ZM342.37-10.75L334.57-34.05 327.42-10.75 342.37-10.75ZM356.82-33.95L354.17-34.25 354.22-35 361.07-35 380.52-1.4 380.27-33.25Q380.07-33.75 379.72-33.8L379.72-33.8 375.12-34.2Q375.07-34.5 375.07-34.95L375.07-34.95 384.57-35Q384.57-34.95 384.62-34.25L384.62-34.25 381.42-33.9 381.42 0 377.77 0 358.32-33.6 358.57-1.05 364.27-0.75Q364.27-0.7 364.22 0L364.22 0 354.17 0.05 354.22-0.65 356.82-1Q357.32-1.05 357.42-1.65L357.42-1.65 357.42-33.3Q357.32-33.9 356.82-33.95L356.82-33.95ZM396.67 0L386.62 0.05 386.67-0.65 389.27-1Q389.62-1.05 389.87-1.65L389.87-1.65 400.67-35 403.97-35 415.47-0.95 418.92-0.75Q418.92-0.7 418.87 0L418.87 0 408.87 0.05Q408.87-0.4 408.92-0.65L408.92-0.65 411.52-1Q411.92-1.05 411.92-1.6L411.92-1.6 409.17-9.75 393.57-9.75 390.92-1.05 396.72-0.75Q396.72-0.7 396.67 0L396.67 0ZM408.82-10.75L401.02-34.05 393.87-10.75 408.82-10.75ZM420.87-34.95L430.92-35Q430.92-34.95 430.97-34.25L430.97-34.25 427.51-33.95 427.51-1 441.31-1 442.31-9 443.26-8.75 442.51 0 430.92 0 420.87 0.05 420.92-0.65 423.51-1Q424.01-1.05 424.12-1.65L424.12-1.65 424.12-33.3Q424.01-33.9 423.51-33.95L423.51-33.95 420.92-34.2 420.87-34.95ZM444.76-17.4L444.76-17.4Q444.76-25.65 448.99-30.55 453.21-35.45 459.51-35.45L459.51-35.45Q474.26-35.45 474.26-17.4L474.26-17.4Q474.26-9.1 470.06-4.33 465.86 0.45 459.51 0.45L459.51 0.45Q444.76 0.45 444.76-17.4ZM448.16-17.5L448.16-17.5Q448.16-0.55 459.51-0.55L459.51-0.55Q464.41-0.55 467.64-5.05 470.86-9.55 470.86-17.5L470.86-17.5Q470.86-34.45 459.51-34.45L459.51-34.45Q454.66-34.45 451.41-29.9 448.16-25.35 448.16-17.5ZM495.66-14.4L504.66-14.45Q504.66-14.4 504.71-13.7L504.71-13.7 502.71-13.45 502.71-1.05Q501.86-0.75 498.19-0.28 494.51 0.2 492.21 0.2 489.91 0.2 488.21-0.13 486.51-0.45 484.61-1.5 482.71-2.55 481.39-4.28 480.06-6 479.16-9 478.26-12 478.26-16L478.26-16Q478.26-24.85 482.31-29.8L482.31-29.8Q486.56-35 493.91-35L493.91-35Q496.16-35 498.79-34.58 501.41-34.15 502.51-33.75L502.51-33.75 503.11-26.55 502.16-26.2 501.51-31.55Q497.46-34.3 493.91-34.3L493.91-34.3Q488.26-34.3 484.96-29.6 481.66-24.9 481.66-16L481.66-16Q481.66-5.2 486.61-2.05L486.61-2.05Q488.11-1.1 489.39-0.83 490.66-0.55 492.96-0.55 495.26-0.55 499.71-1.2L499.71-1.2 499.91-12.7Q499.91-13.3 499.31-13.4L499.31-13.4 495.71-13.65Q495.66-13.95 495.66-14.4L495.66-14.4Z" opacity="1" transform="matrix(1,0,0,1,0,0)" fill="#ffffff" class="wordmark-text-0" data-fill-palette-color="primary" id="text-0"></path></svg></g></svg></g></svg></g></svg></g><g transform="matrix(1,0,0,1,181.70762511011583,35.86981305401868)"><svg viewBox="0 0 32.104749779768305 32.078809168511064" height="32.078809168511064" width="32.104749779768305"><g><svg xmlns="http://www.w3.org/2000/svg" xmlns:xlink="http://www.w3.org/1999/xlink" version="1.1" viewBox="0.960000000000008 1 94.07601334093707 94" x="0" y="0" height="32.078809168511064" width="32.104749779768305" class="icon-icon-0" data-fill-palette-color="accent" id="icon-0"><path d="M93.04 75c-0.028-0.004-0.052-0.004-0.08 0h-90c-1.104 0-2-0.896-2-2v-46c0-14.336 11.888-26 26.5-26 14.876 0 24.008 13.38 26.468 26.636 2.1 11.368 10.268 14.372 18.916 17.556 10.264 3.776 21.884 8.052 22.108 27.244 0.056 0.184 0.084 0.376 0.084 0.576 0.004 1.092-0.892 1.988-1.996 1.988zM4.96 71h85.956c-0.7-15.152-9.416-18.364-19.448-22.056-8.884-3.268-18.956-6.976-21.476-20.584-2.156-11.628-9.956-23.364-22.532-23.364-12.196 0-22.5 10.076-22.5 22v44.004z" fill="#ffffff" data-fill-palette-color="accent"></path><path d="M86.96 95h-80c-1.104 0-2-0.896-2-2v-20c0-1.104 0.896-2 2-2h80c1.1 0 2 0.896 2 2v20c0 1.104-0.896 2-2 2zM8.96 91h76v-16h-76v16z" fill="#ffffff" data-fill-palette-color="accent"></path><path d="M22.96 85c-1.104 0-2-0.896-2-2v-8c0-1.104 0.896-2 2-2 1.1 0 2 0.896 2 2v8c0 1.104-0.896 2-2 2z" fill="#ffffff" data-fill-palette-color="accent"></path><path d="M34.96 85c-1.104 0-2-0.896-2-2v-8c0-1.104 0.896-2 2-2 1.1 0 2 0.896 2 2v8c0 1.104-0.896 2-2 2z" fill="#ffffff" data-fill-palette-color="accent"></path><path d="M46.96 85c-1.104 0-2-0.896-2-2v-8c0-1.104 0.896-2 2-2 1.1 0 2 0.896 2 2v8c0 1.104-0.896 2-2 2z" fill="#ffffff" data-fill-palette-color="accent"></path><path d="M58.96 85c-1.104 0-2-0.896-2-2v-8c0-1.104 0.896-2 2-2 1.1 0 2 0.896 2 2v8c0 1.104-0.896 2-2 2z" fill="#ffffff" data-fill-palette-color="accent"></path><path d="M70.96 85c-1.104 0-2-0.896-2-2v-8c0-1.104 0.896-2 2-2 1.1 0 2 0.896 2 2v8c0 1.104-0.896 2-2 2z" fill="#ffffff" data-fill-palette-color="accent"></path></svg></g></svg></g><g></g></svg></g></svg></g></svg></g><defs></defs></svg><rect width="395.52" height="247.2" fill="none" stroke="none" visibility="hidden"></rect></g></svg></g></svg>